<?xml version="1.0" encoding="UTF-8"?>
<svg width="19px" height="18px" viewBox="0 0 19 18" version="1.1" xmlns="http://www.w3.org/2000/svg" xmlns:xlink="http://www.w3.org/1999/xlink">
    <!-- Generator: Sketch 46.2 (44496) - http://www.bohemiancoding.com/sketch -->
    <title>Page 1</title>
    <desc>Created with Sketch.</desc>
    <defs></defs>
    <g id="Symbols" stroke="none" stroke-width="1" fill="none" fill-rule="evenodd">
        <g id="INFO" transform="translate(-347.000000, -13.000000)" fill="#FFFFFF">
            <g id="Group-2" transform="translate(347.000000, 13.000000)">
                <g id="Page-1">
                    <path d="M9.01167807,13 C8.46117345,13 8,13.45605 8,14 C8,14.54395 8.46117345,15 9.01167807,15 C9.54164563,15 10.0233561,14.54395 9.99907587,14.02395 C10.0233561,13.45195 9.5659259,13 9.01167807,13" id="Fill-1"></path>
                    <path d="M17.2096764,15.4417335 C16.8698291,16.048881 16.2683467,16.4091724 15.5966588,16.4091724 L3.37943863,16.4091724 C2.71556222,16.4091724 2.11788793,16.0569763 1.78604737,15.462073 C1.45000815,14.8588719 1.44620006,14.1384409 1.78204399,13.5312934 L7.90627701,2.54597175 C8.23831286,1.94277073 8.83178849,1.58662814 9.50367164,1.58662814 C10.1715514,1.58662814 10.7692257,1.94691957 11.1010663,2.5499182 L17.2214912,13.5352904 C17.5495237,14.1262473 17.5455203,14.8387349 17.2096764,15.4417335 M18.5375757,16.2350729 C19.1509217,15.1381598 19.1547298,13.8307183 18.5453871,12.7380046 L12.4291608,1.76077827 C11.8236751,0.655769869 10.7301196,0 9.50367164,0 C8.27722369,0 7.18371701,0.659716327 6.57837773,1.75662943 L0.45414471,12.7461505 C-0.155197947,13.8511589 -0.151389861,15.1666451 0.465764256,16.263457 C1.07510691,17.3481766 2.16480551,18 3.383442,18 L15.6004669,18 C16.8231068,18 17.9204704,17.3400813 18.5375757,16.2350729" id="Fill-3"></path>
                    <path d="M8.7643681,6.02666642 C8.2931538,6.15478966 8,6.56211597 8,7.05613052 C8.0237612,7.35409484 8.0435127,7.65568883 8.0672739,7.95360601 C8.13454779,9.088661 8.2020692,10.2011837 8.2693431,11.3361915 C8.2931538,11.7207969 8.6060096,12 9.00995,12 C9.4138904,12 9.7306569,11.7020828 9.75035889,11.3137535 C9.75035889,11.0798979 9.75035889,10.8648036 9.77412009,10.6272712 C9.81763279,9.89958966 9.86520469,9.17167242 9.9089154,8.44380231 C9.93252809,7.97241438 9.9761893,7.50102645 10,7.02963852 C10,6.86003315 9.9761893,6.70904759 9.9089154,6.55825059 C9.7068462,6.13602842 9.2356319,5.92093411 8.7643681,6.02666642" id="Fill-6"></path>
                </g>
            </g>
        </g>
    </g>
</svg>