<?xml version="1.0" encoding="UTF-8"?>
<svg width="23px" height="23px" viewBox="0 0 23 23" version="1.1" xmlns="http://www.w3.org/2000/svg" xmlns:xlink="http://www.w3.org/1999/xlink">
    <!-- Generator: Sketch 46.2 (44496) - http://www.bohemiancoding.com/sketch -->
    <title>Page 1</title>
    <desc>Created with Sketch.</desc>
    <defs></defs>
    <g id="Symbols" stroke="none" stroke-width="1" fill="none" fill-rule="evenodd">
        <g id="INFO" transform="translate(-1136.000000, -11.000000)" stroke="#FFFFFF" stroke-width="0.5" fill="#FFFFFF">
            <g id="Page-1" transform="translate(1137.000000, 12.000000)">
                <path d="M10.4004,20 C5.1074,20 0.8009,15.6935 0.8009,10.4005 C0.8009,5.1075 5.1074,0.801 10.4004,0.801 C15.6934,0.801 19.9999,5.1075 19.9999,10.4005 C19.9999,15.6935 15.6934,20 10.4004,20 M10.4004,0 C4.6659,0 -0.0001,4.666 -0.0001,10.4005 C-0.0001,16.135 4.6659,20.801 10.4004,20.801 C16.1349,20.801 20.8009,16.135 20.8009,10.4005 C20.8009,4.666 16.1349,0 10.4004,0" id="Fill-1"></path>
                <path d="M14.2832,6.5176 C14.1272,6.3616 13.8732,6.3616 13.7167,6.5176 L10.4002,9.8341 L7.0822,6.5176 C6.9262,6.3616 6.6742,6.3616 6.5177,6.5176 C6.3617,6.6741 6.3617,6.9261 6.5177,7.0821 L9.8342,10.4006 L6.5177,13.7166 C6.3617,13.8731 6.3617,14.1271 6.5177,14.2831 C6.5957,14.3616 6.6977,14.4006 6.8012,14.4006 C6.9027,14.4006 7.0037,14.3616 7.0822,14.2831 L10.4002,10.9651 L13.7167,14.2831 C13.7947,14.3616 13.8982,14.4006 14.0002,14.4006 C14.1017,14.4006 14.2052,14.3616 14.2832,14.2831 C14.4392,14.1271 14.4392,13.8731 14.2832,13.7166 L10.9647,10.4006 L14.2832,7.0821 C14.4392,6.9261 14.4392,6.6741 14.2832,6.5176" id="Fill-4"></path>
            </g>
        </g>
    </g>
</svg>